<svg width="19" height="20" viewBox="0 0 19 20" fill="none" xmlns="http://www.w3.org/2000/svg">
<path d="M17.9992 9.55268L1.93004 1.034C1.8041 0.967217 1.66263 0.940459 1.52268 0.956947C1.38272 0.973434 1.25024 1.03246 1.14119 1.12693C1.03706 1.21947 0.959326 1.34097 0.916745 1.47778C0.874164 1.61459 0.868419 1.76127 0.900157 1.90135L2.83576 9.46749H11.0968V11.0163H2.83576L0.870941 18.5592C0.841159 18.6762 0.837683 18.799 0.860791 18.9176C0.883899 19.0363 0.932948 19.1476 1.00399 19.2425C1.07504 19.3374 1.1661 19.4133 1.26985 19.4641C1.3736 19.5149 1.48714 19.5392 1.60136 19.535C1.7157 19.5343 1.82828 19.5051 1.93004 19.4498L17.9992 10.9312C18.1188 10.8662 18.2192 10.7674 18.2894 10.6458C18.3595 10.5242 18.3966 10.3844 18.3966 10.2419C18.3966 10.0994 18.3595 9.95962 18.2894 9.83801C18.2192 9.7164 18.1188 9.61766 17.9992 9.55268Z" fill="#31AEE5"/>
</svg>
